<?xml version="1.0" encoding="UTF-8" standalone="no"?>
<!-- Created with Inkscape (http://www.inkscape.org/) -->

<svg
   width="225.79153mm"
   height="14.714238mm"
   viewBox="0 0 225.79153 14.714238"
   version="1.1"
   id="svg5"
   xml:space="preserve"
   inkscape:version="1.2.2 (732a01da63, 2022-12-09)"
   sodipodi:docname="wave.svg"
   xmlns:inkscape="http://www.inkscape.org/namespaces/inkscape"
   xmlns:sodipodi="http://sodipodi.sourceforge.net/DTD/sodipodi-0.dtd"
   xmlns="http://www.w3.org/2000/svg"
   xmlns:svg="http://www.w3.org/2000/svg"><sodipodi:namedview
     id="namedview7"
     pagecolor="#ffffff"
     bordercolor="#000000"
     borderopacity="0.25"
     inkscape:showpageshadow="2"
     inkscape:pageopacity="0.0"
     inkscape:pagecheckerboard="0"
     inkscape:deskcolor="#d1d1d1"
     inkscape:document-units="mm"
     showgrid="false"
     inkscape:zoom="11.930303"
     inkscape:cx="821.81484"
     inkscape:cy="29.253239"
     inkscape:window-width="1920"
     inkscape:window-height="1017"
     inkscape:window-x="1672"
     inkscape:window-y="-8"
     inkscape:window-maximized="1"
     inkscape:current-layer="layer1" /><defs
     id="defs2" /><g
     inkscape:label="Calque 1"
     inkscape:groupmode="layer"
     id="layer1"
     transform="translate(-23.710258,-84.396187)"><path
       style="fill:#000000;stroke-width:0.28345"
       d="m 23.393652,94.182417 0.09542,-4.928025 3.782901,-0.730174 c 7.676038,-1.48165 19.536844,-2.913108 29.853301,-3.602941 7.651824,-0.511651 25.525446,-0.694154 33.851478,-0.345639 15.574408,0.651914 27.911248,1.944093 45.636178,4.779999 21.7982,3.487606 35.41105,4.704205 55.05715,4.920519 16.54955,0.182234 27.56253,-0.380816 41.39053,-2.116096 5.37065,-0.673967 14.57162,-2.505858 16.78804,-2.89084 0.7563,-0.131367 0.0652,0.357375 0.0652,4.938207 v 4.902999 H 136.60603 23.298231 Z"
       id="path125"
       inkscape:export-filename="path125.png"
       inkscape:export-xdpi="96"
       inkscape:export-ydpi="96"
       sodipodi:nodetypes="cccssssssscccc" /><path
       style="fill:#000000;stroke-width:0.287346"
       d="m -212.42555,94.182418 0.0981,-4.928025 3.88761,-0.730174 c 7.88851,-1.48165 20.07763,-2.913108 30.67964,-3.602941 7.86363,-0.511651 26.23199,-0.694154 34.78849,-0.345639 16.00551,0.651914 28.68383,1.944093 46.899386,4.779999 22.40157,3.487606 36.39122,4.704205 56.58114,4.920519 17.00763,0.182234 28.32545,-0.380816 42.5362101,-2.116096 5.51931,-0.673967 14.4483799,-2.114369 16.6829499,-2.691243 0.59492,-0.153545 0.63676,0.157778 0.63676,4.73861 v 4.902999 H -96.079454 -212.52361 Z"
       id="path201"
       inkscape:export-filename="path125.png"
       inkscape:export-xdpi="96"
       inkscape:export-ydpi="96" /></g></svg>
